<svg width="138" height="39" viewBox="0 0 138 39" fill="none" xmlns="http://www.w3.org/2000/svg">
<g clip-path="url(#clip0_4700_2029)">
<path d="M60.6894 9.53486L63.9178 6.31773C64.6719 5.56624 64.673 4.34896 63.9203 3.59886C63.1676 2.84876 61.9461 2.84989 61.192 3.60139L57.9636 6.81851C57.2095 7.57001 57.2084 8.78729 57.9611 9.53738C58.7138 10.2875 59.9353 10.2864 60.6894 9.53486Z" fill="#A6C8D5"/>
<path d="M56.8682 6.49595V2.35401C56.8682 1.29124 56.0052 0.429688 54.9407 0.429688C53.8762 0.429688 53.0133 1.29124 53.0133 2.35401V6.49595C53.0133 7.55873 53.8762 8.42028 54.9407 8.42028C56.0052 8.42028 56.8682 7.55873 56.8682 6.49595Z" fill="#A6C8D5"/>
<path d="M15.6492 12.6272V9.30078H4.08458L0 9.5297V12.6272H4.08458V26.1833C4.08458 28.1577 4.59426 29.6743 5.62079 30.7187C6.20965 31.2721 6.90733 31.6977 7.66971 31.9686C8.43209 32.2395 9.24259 32.3498 10.0499 32.2925C10.4519 32.2925 10.9831 32.2925 11.6507 32.221C12.3184 32.1494 12.986 32.1065 13.6464 32.0135C14.25 31.9337 14.8473 31.8118 15.4338 31.6487L14.9026 28.3294H11.5646C10.7392 28.4114 9.91388 28.1731 9.2603 27.6641C8.77477 27.0394 8.54401 26.255 8.61423 25.4679V12.6272H15.6492Z" fill="white"/>
<path d="M35.4406 11.7043C34.8552 10.6383 33.8972 9.82362 32.7487 9.41516C31.3389 8.93072 29.8532 8.70294 28.3626 8.74272C27.2427 8.74272 26.0224 8.78564 24.6944 8.87864C23.3663 8.97164 22.0527 9.1004 20.7677 9.25063C19.4827 9.40085 18.3126 9.57254 17.2646 9.75853L17.6809 12.949L22.9715 12.5914C24.7518 12.4721 26.2306 12.4101 27.4078 12.4054C29.1403 12.4054 30.3151 12.6987 30.9325 13.2853C31.2758 13.6735 31.5356 14.1277 31.6961 14.6198C31.8566 15.1119 31.9143 15.6315 31.8657 16.1467V17.9494H22.6054C20.9038 17.846 19.2239 18.3734 17.8891 19.4302C17.3182 19.9492 16.8701 20.5881 16.5771 21.3006C16.2841 22.0132 16.1536 22.7817 16.195 23.5507V25.9972C16.1552 27.2068 16.4615 28.4026 17.0779 29.4453C17.6573 30.3883 18.5076 31.136 19.5186 31.5914C20.6482 32.0885 21.8734 32.3327 23.1079 32.3067C24.2988 32.3192 25.4833 32.1305 26.611 31.7487C27.6387 31.4026 28.6218 30.9368 29.5399 30.3609C30.3472 29.8634 31.1003 29.2832 31.7867 28.6298C31.9662 28.4581 32.1241 28.2936 32.2749 28.1362L32.8204 31.9061H36.3451V16.1682C36.4244 14.6282 36.1133 13.093 35.4406 11.7043ZM30.2649 26.6697C29.2569 27.3003 28.171 27.7981 27.0346 28.1505C26.1062 28.4507 25.1389 28.6146 24.1631 28.6369C23.2208 28.7322 22.2783 28.4576 21.5358 27.8715C21.2474 27.5452 21.0287 27.1638 20.893 26.7506C20.7572 26.3374 20.7073 25.9009 20.7462 25.4679V24.0372C20.6949 23.2709 20.916 22.5111 21.3707 21.8911C21.668 21.6258 22.0175 21.4251 22.397 21.302C22.7764 21.1788 23.1774 21.1358 23.5745 21.1757L31.8442 21.1399V25.5466C31.3501 25.9642 30.8219 26.3399 30.2649 26.6697Z" fill="white"/>
<path d="M57.3777 11.7968C56.1717 9.75563 54.176 8.73744 51.3908 8.7422C50.2248 8.75078 49.0664 8.92912 47.9523 9.27157C46.7852 9.62459 45.6701 10.1297 44.6358 10.7738C43.7001 11.3555 42.8456 12.0579 42.0946 12.8627L41.7285 9.28588H38.0459V38.4297H42.5038V34.7671C42.5397 33.8371 42.5397 32.9643 42.5038 32.1274C42.5038 31.4692 42.432 30.7896 42.3674 30.1101C43.5562 30.8573 44.8441 31.4352 46.1935 31.8269C47.6355 32.2417 49.129 32.4512 50.6299 32.4493C52.3014 32.5176 53.9612 32.1424 55.4395 31.3619C56.7847 30.5216 57.7812 29.2264 58.2463 27.7136C58.9411 25.4584 59.2541 23.1036 59.1723 20.746C59.1867 16.8115 58.5837 13.8284 57.3777 11.7968ZM54.0827 25.6748C53.9752 26.1659 53.7715 26.631 53.4832 27.0434C53.195 27.4559 52.8279 27.8076 52.403 28.0784C51.4645 28.554 50.4181 28.7784 49.3664 28.7294C48.2253 28.7258 47.0884 28.5914 45.9782 28.3288C44.9588 28.0951 43.8055 27.7899 42.5181 27.4131V15.717C43.702 14.7847 44.9794 13.9768 46.3299 13.3062C47.4155 12.7816 48.605 12.5055 49.8115 12.4979C50.7916 12.4484 51.7613 12.717 52.5752 13.2633C53.3605 13.9114 53.9 14.8074 54.1043 15.8028C54.4745 17.4188 54.6385 19.0748 54.5924 20.7317C54.6426 22.3946 54.4712 24.0568 54.0827 25.6748Z" fill="white"/>
<path d="M75.1307 8.8789C75.7552 8.8789 76.4659 8.8789 77.2842 8.97189C78.1026 9.06489 78.9066 9.13643 79.7465 9.27234C80.5336 9.40367 81.309 9.59743 82.0651 9.85179L81.6488 11.7976C80.6868 11.676 79.6388 11.583 78.4902 11.5186C77.3417 11.4542 76.3869 11.4256 75.6188 11.4256C74.0235 11.362 72.4329 11.6376 70.9528 12.2339C70.3668 12.5141 69.8431 12.9085 69.4128 13.3938C68.9825 13.8792 68.6542 14.4456 68.4475 15.0596C67.8678 16.8584 67.6078 18.7443 67.6794 20.6323C67.6099 22.5295 67.8698 24.4245 68.4475 26.2336C68.6501 26.8541 68.9764 27.4275 69.4069 27.9192C69.8375 28.4109 70.3633 28.8109 70.9528 29.095C72.4329 29.6914 74.0235 29.967 75.6188 29.9034C76.0854 29.9034 76.6884 29.9034 77.4278 29.8533C78.1672 29.8032 78.964 29.7818 79.7967 29.7174C80.6294 29.653 81.4262 29.56 82.1656 29.4384L82.5389 31.4271C81.3659 31.7811 80.1653 32.0372 78.9496 32.1925C77.6789 32.3609 76.3983 32.4446 75.1163 32.4429C73.0113 32.5315 70.914 32.1374 68.9858 31.2912C67.4353 30.5122 66.2341 29.1824 65.6191 27.5641C64.8411 25.3434 64.4881 22.997 64.5782 20.6466C64.4926 18.3034 64.8456 15.9649 65.6191 13.7505C66.2238 12.1278 67.4283 10.797 68.9858 10.0306C70.9221 9.19417 73.0218 8.80062 75.1307 8.8789Z" fill="white"/>
<path d="M101.935 11.7243C101.393 10.753 100.534 9.99565 99.5011 9.57825C98.2492 9.09944 96.915 8.87095 95.5745 8.90581C94.3039 8.90581 93.0333 8.96304 91.7699 9.07034C90.5064 9.17765 89.2789 9.29926 88.1016 9.44233C86.9244 9.5854 85.8117 9.74278 84.7564 9.92877L85.0364 12.0749C86.7401 11.8889 88.4893 11.7339 90.2839 11.6099C92.0785 11.4859 93.6554 11.4239 95.0146 11.4239C96.8762 11.4239 98.1396 11.7935 98.8048 12.5327C99.5184 13.4569 99.8658 14.6103 99.7811 15.7733V18.1769H89.7312C88.1396 18.0797 86.5709 18.5914 85.3451 19.6076C84.8104 20.122 84.3942 20.746 84.1252 21.4365C83.8563 22.1269 83.741 22.8673 83.7873 23.6065V26.1818C83.7542 27.3384 84.0344 28.4826 84.5985 29.4939C85.1291 30.3901 85.9166 31.1076 86.8597 31.5542C87.9208 32.0435 89.079 32.288 90.248 32.2695C91.4067 32.272 92.5589 32.0983 93.665 31.7545C94.7165 31.4396 95.7282 31.0051 96.68 30.4596C97.5155 29.9755 98.3123 29.4278 99.0632 28.8215C99.412 28.5494 99.7451 28.258 100.061 27.9487L100.434 31.8761H102.76V15.7733C102.83 14.376 102.546 12.9836 101.935 11.7243ZM97.5557 27.5267C96.4308 28.2111 95.2253 28.7541 93.9665 29.1434C92.912 29.4959 91.8052 29.6677 90.6931 29.6513C89.6203 29.7352 88.5562 29.4048 87.7212 28.7285C87.369 28.3448 87.1009 27.8922 86.934 27.3995C86.7672 26.9068 86.7052 26.3849 86.7521 25.867V23.9642C86.6977 23.0488 86.9926 22.1467 87.5776 21.4389C87.9183 21.1125 88.3232 20.86 88.7668 20.6975C89.2104 20.535 89.683 20.4659 90.1547 20.4947L99.7811 20.4088V25.8813C99.0911 26.4961 98.3462 27.0468 97.5557 27.5267Z" fill="white"/>
<path d="M117.39 8.87759C115.665 8.90416 113.968 9.31478 112.423 10.0794C110.654 10.9378 108.988 11.9912 107.455 13.2198L107.125 9.43557H104.85V31.9051H107.778V15.1513C109.332 14.2118 110.935 13.3569 112.581 12.5903C113.932 11.9706 115.401 11.6461 116.888 11.6389H118.001L118.374 8.86328L117.39 8.87759Z" fill="white"/>
<path d="M135.079 2.13867V6.65976C135.079 7.52296 135.079 8.32416 135.079 9.06337C135.095 9.73337 135.148 10.402 135.237 11.0664C133.953 10.3938 132.6 9.86139 131.202 9.47828C129.75 9.08215 128.25 8.88008 126.744 8.87738C125.099 8.81603 123.469 9.20971 122.035 10.0148C120.72 10.893 119.752 12.2009 119.3 13.7132C118.623 15.9547 118.318 18.2912 118.396 20.6308C118.396 24.6463 119.013 27.6151 120.248 29.537C121.482 31.459 123.526 32.4128 126.378 32.3985C128.09 32.403 129.778 32.0008 131.303 31.2253C132.787 30.4584 134.175 29.5195 135.438 28.4282L135.761 31.8476H138.029V2.13867H135.079ZM129.81 29.444C128.961 29.7165 128.074 29.8494 127.182 29.8375C126.017 29.8871 124.862 29.5908 123.866 28.9862C122.921 28.2819 122.255 27.269 121.985 26.1247C121.529 24.3181 121.326 22.4572 121.382 20.595C121.324 18.7398 121.527 16.8857 121.985 15.0867C122.257 13.9491 122.942 12.9524 123.909 12.2896C124.965 11.706 126.163 11.4262 127.369 11.4813C128.661 11.4749 129.948 11.6287 131.202 11.9391C132.327 12.2253 133.619 12.602 135.079 13.0694V26.2678C134.059 26.9832 133.14 27.6485 132.336 28.1707C131.554 28.7032 130.704 29.1313 129.81 29.444Z" fill="white"/>
<path d="M64.7144 13.4985C65.0754 12.569 65.6253 11.7239 66.3296 11.0162C65.9974 10.7634 65.5917 10.6253 65.1738 10.6227H61.0175C60.7544 10.6067 60.4909 10.6445 60.2431 10.7338C59.9953 10.8231 59.7685 10.962 59.5766 11.1419C59.3847 11.3218 59.2318 11.539 59.1272 11.78C59.0227 12.0211 58.9688 12.2809 58.9688 12.5435C58.9688 12.806 59.0227 13.0659 59.1272 13.3069C59.2318 13.5479 59.3847 13.7651 59.5766 13.945C59.7685 14.1249 59.9953 14.2638 60.2431 14.3531C60.4909 14.4424 60.7544 14.4802 61.0175 14.4642H64.3914C64.4847 14.128 64.6067 13.7989 64.7144 13.4985Z" fill="#A6C8D5"/>
</g>
<defs>
<clipPath id="clip0_4700_2029">
<rect width="138" height="38" fill="white" transform="translate(0 0.429688)"/>
</clipPath>
</defs>
</svg>
